<svg id="visual" viewBox="0 0 1920 1080" width="1920" height="1080" xmlns="http://www.w3.org/2000/svg" xmlns:xlink="http://www.w3.org/1999/xlink" version="1.1"><rect x="0" y="0" width="1920" height="1080" fill="#002233"></rect><path d="M0 758L35.5 754.2C71 750.3 142 742.7 213.2 725C284.3 707.3 355.7 679.7 426.8 674.2C498 668.7 569 685.3 640 688.2C711 691 782 680 853.2 697.8C924.3 715.7 995.7 762.3 1066.8 784.7C1138 807 1209 805 1280 800.2C1351 795.3 1422 787.7 1493.2 788.7C1564.3 789.7 1635.7 799.3 1706.8 792.8C1778 786.3 1849 763.7 1884.5 752.3L1920 741L1920 1081L1884.5 1081C1849 1081 1778 1081 1706.8 1081C1635.7 1081 1564.3 1081 1493.2 1081C1422 1081 1351 1081 1280 1081C1209 1081 1138 1081 1066.8 1081C995.7 1081 924.3 1081 853.2 1081C782 1081 711 1081 640 1081C569 1081 498 1081 426.8 1081C355.7 1081 284.3 1081 213.2 1081C142 1081 71 1081 35.5 1081L0 1081Z" fill="#0066FF" stroke-linecap="round" stroke-linejoin="miter"></path></svg>